<svg width="18" height="18" viewBox="0 0 18 18" fill="none" xmlns="http://www.w3.org/2000/svg">
<path d="M3.75 14.25H5.25C5.4625 14.25 5.64075 14.322 5.78475 14.466C5.92875 14.61 6.0005 14.788 6 15C6 15.2125 5.928 15.3907 5.784 15.5347C5.64 15.6787 5.462 15.7505 5.25 15.75H3C2.7875 15.75 2.6095 15.678 2.466 15.534C2.3225 15.39 2.2505 15.212 2.25 15V12.75C2.25 12.5375 2.322 12.3595 2.466 12.216C2.61 12.0725 2.788 12.0005 3 12C3.2125 12 3.39075 12.072 3.53475 12.216C3.67875 12.36 3.7505 12.538 3.75 12.75V14.25ZM14.25 14.25V12.75C14.25 12.5375 14.322 12.3595 14.466 12.216C14.61 12.0725 14.788 12.0005 15 12C15.2125 12 15.3907 12.072 15.5347 12.216C15.6787 12.36 15.7505 12.538 15.75 12.75V15C15.75 15.2125 15.678 15.3907 15.534 15.5347C15.39 15.6787 15.212 15.7505 15 15.75H12.75C12.5375 15.75 12.3595 15.678 12.216 15.534C12.0725 15.39 12.0005 15.212 12 15C12 14.7875 12.072 14.6095 12.216 14.466C12.36 14.3225 12.538 14.2505 12.75 14.25H14.25ZM3.75 3.75V5.25C3.75 5.4625 3.678 5.64075 3.534 5.78475C3.39 5.92875 3.212 6.0005 3 6C2.7875 6 2.6095 5.928 2.466 5.784C2.3225 5.64 2.2505 5.462 2.25 5.25V3C2.25 2.7875 2.322 2.6095 2.466 2.466C2.61 2.3225 2.788 2.2505 3 2.25H5.25C5.4625 2.25 5.64075 2.322 5.78475 2.466C5.92875 2.61 6.0005 2.788 6 3C6 3.2125 5.928 3.39075 5.784 3.53475C5.64 3.67875 5.462 3.7505 5.25 3.75H3.75ZM14.25 3.75H12.75C12.5375 3.75 12.3595 3.678 12.216 3.534C12.0725 3.39 12.0005 3.212 12 3C12 2.7875 12.072 2.6095 12.216 2.466C12.36 2.3225 12.538 2.2505 12.75 2.25H15C15.2125 2.25 15.3907 2.322 15.5347 2.466C15.6787 2.61 15.7505 2.788 15.75 3V5.25C15.75 5.4625 15.678 5.64075 15.534 5.78475C15.39 5.92875 15.212 6.0005 15 6C14.7875 6 14.6095 5.928 14.466 5.784C14.3225 5.64 14.2505 5.462 14.25 5.25V3.75Z" fill="white"/>
</svg>
