<svg width="33" height="33" viewBox="0 0 33 33" fill="none" xmlns="http://www.w3.org/2000/svg">
<path d="M29.4834 23.1928C29.1947 22.6772 28.8441 22.1616 28.4522 21.615C27.5197 20.4506 26.8733 19.0836 26.565 17.6241L26.1319 11.5397C25.8741 6.82687 23.1206 2.0625 17.6447 2.0625H15.3553C9.87936 2.0625 7.1053 6.82688 6.82686 11.5294L6.39374 17.6241C6.08674 19.0966 5.44056 20.4772 4.50655 21.6562C4.15593 22.1925 3.8053 22.6875 3.56811 23.1516C3.31356 23.4932 3.15939 23.8991 3.12295 24.3236C3.08651 24.7481 3.16925 25.1743 3.36186 25.5544C3.58658 25.9535 3.91764 26.2824 4.31819 26.5045C4.71874 26.7266 5.17307 26.8333 5.63061 26.8125H13.5919C13.4223 27.2798 13.3678 27.7811 13.433 28.2739C13.4982 28.7667 13.6812 29.2366 13.9665 29.6437C14.2519 30.0507 14.6311 30.3831 15.0721 30.6125C15.5131 30.842 16.0029 30.9618 16.5 30.9618C16.9971 30.9618 17.4869 30.842 17.9279 30.6125C18.3689 30.3831 18.7481 30.0507 19.0334 29.6437C19.3188 29.2366 19.5018 28.7667 19.567 28.2739C19.6322 27.7811 19.5777 27.2798 19.4081 26.8125H27.3694C27.8311 26.8293 28.2884 26.7165 28.6893 26.4868C29.0903 26.2572 29.4189 25.9199 29.6381 25.5131C29.8309 25.1503 29.9185 24.7409 29.8912 24.3309C29.8639 23.921 29.7226 23.5268 29.4834 23.1928ZM17.5312 27.8438C17.5312 28.0477 17.4708 28.2471 17.3574 28.4167C17.2441 28.5863 17.0831 28.7184 16.8946 28.7965C16.7062 28.8746 16.4988 28.895 16.2988 28.8552C16.0988 28.8154 15.915 28.7172 15.7708 28.573C15.6266 28.4287 15.5283 28.245 15.4886 28.0449C15.4488 27.8449 15.4692 27.6375 15.5472 27.4491C15.6253 27.2607 15.7575 27.0996 15.9271 26.9863C16.0966 26.873 16.296 26.8125 16.5 26.8125C16.7735 26.8125 17.0358 26.9211 17.2292 27.1145C17.4226 27.3079 17.5312 27.5702 17.5312 27.8438ZM27.8437 24.5747C27.8437 24.6572 27.6684 24.75 27.4106 24.75H5.63061C5.3728 24.75 5.23874 24.6572 5.19749 24.5747C5.15624 24.4922 5.19749 24.3787 5.30061 24.2137C5.57905 23.7394 5.89874 23.2444 6.22874 22.7494C7.25999 21.2644 8.29124 19.5731 8.44593 17.7684L8.88936 11.6737C9.10593 8.18812 10.9312 4.125 15.3553 4.125H17.6447C22.0687 4.125 23.8941 8.18812 24.1106 11.6841L24.5541 17.7684C24.6778 19.5938 25.7812 21.2644 26.8125 22.7494C27.1425 23.2444 27.4622 23.7806 27.7922 24.3066C27.825 24.3419 27.8472 24.3858 27.8564 24.4332C27.8655 24.4806 27.8611 24.5296 27.8437 24.5747Z" fill="#FAFAFA"/>
</svg>
