<svg width="33" height="33" viewBox="0 0 33 33" fill="none" xmlns="http://www.w3.org/2000/svg">
<path d="M24.75 8.25H19.8137L22.9762 5.10125C23.1045 4.97304 23.2062 4.82084 23.2755 4.65334C23.3449 4.48583 23.3806 4.3063 23.3806 4.125C23.3806 3.94369 23.3449 3.76416 23.2755 3.59665C23.2062 3.42915 23.1045 3.27695 22.9762 3.14875C22.848 3.02054 22.6958 2.91885 22.5283 2.84946C22.3608 2.78008 22.1813 2.74437 22 2.74437C21.6338 2.74437 21.2827 2.88983 21.0238 3.14875L16.5 7.6175L14.8912 4.8675C14.801 4.7104 14.6806 4.57263 14.5371 4.46204C14.3936 4.35146 14.2297 4.27023 14.0547 4.22298C13.8798 4.17574 13.6973 4.16342 13.5176 4.18671C13.3379 4.21 13.1646 4.26846 13.0075 4.35875C12.8504 4.44903 12.7126 4.56937 12.602 4.7129C12.4915 4.85643 12.4102 5.02033 12.363 5.19525C12.3157 5.37018 12.3034 5.55269 12.3267 5.73238C12.35 5.91206 12.4085 6.0854 12.4988 6.2425L13.75 8.25H8.25C7.15598 8.25 6.10677 8.68459 5.33318 9.45818C4.5596 10.2318 4.125 11.281 4.125 12.375V23.375C4.125 24.469 4.5596 25.5182 5.33318 26.2918C6.10677 27.0654 7.15598 27.5 8.25 27.5V28.875C8.25 29.2397 8.39487 29.5894 8.65273 29.8473C8.91059 30.1051 9.26033 30.25 9.625 30.25C9.98967 30.25 10.3394 30.1051 10.5973 29.8473C10.8551 29.5894 11 29.2397 11 28.875V27.5H22V28.875C22 29.2397 22.1449 29.5894 22.4027 29.8473C22.6606 30.1051 23.0103 30.25 23.375 30.25C23.7397 30.25 24.0894 30.1051 24.3473 29.8473C24.6051 29.5894 24.75 29.2397 24.75 28.875V27.5C25.844 27.5 26.8932 27.0654 27.6668 26.2918C28.4404 25.5182 28.875 24.469 28.875 23.375V12.375C28.875 11.281 28.4404 10.2318 27.6668 9.45818C26.8932 8.68459 25.844 8.25 24.75 8.25ZM26.125 23.375C26.125 23.7397 25.9801 24.0894 25.7223 24.3473C25.4644 24.6051 25.1147 24.75 24.75 24.75H8.25C7.88533 24.75 7.53559 24.6051 7.27773 24.3473C7.01987 24.0894 6.875 23.7397 6.875 23.375V12.375C6.875 12.0103 7.01987 11.6606 7.27773 11.4027C7.53559 11.1449 7.88533 11 8.25 11H24.75C25.1147 11 25.4644 11.1449 25.7223 11.4027C25.9801 11.6606 26.125 12.0103 26.125 12.375V23.375Z" fill="#FAFAFA"/>
</svg>
