<svg width="22" height="22" viewBox="0 0 22 22" fill="none" xmlns="http://www.w3.org/2000/svg">
<g clip-path="url(#clip0_101_801)">
<path d="M15.1068 13.0533C14.5691 13.0537 14.0531 13.2651 13.6695 13.6419L8.26239 11.2327V11V10.7741L13.6695 8.35802C14.0082 8.68999 14.4513 8.89449 14.9237 8.93679C15.396 8.9791 15.8684 8.8566 16.2607 8.59009C16.653 8.32359 16.9409 7.92952 17.0756 7.47481C17.2103 7.0201 17.1834 6.53278 16.9996 6.09563C16.8157 5.65848 16.4862 5.29844 16.067 5.07667C15.6479 4.85489 15.1648 4.78506 14.7 4.87903C14.2352 4.97299 13.8172 5.22496 13.517 5.59214C13.2169 5.95932 13.0531 6.41907 13.0535 6.89331V7.12602L7.64639 9.53526C7.3578 9.25174 6.99189 9.05978 6.59458 8.98348C6.19728 8.90719 5.78629 8.94997 5.41321 9.10644C5.04013 9.26291 4.72159 9.5261 4.49757 9.86298C4.27355 10.1999 4.15404 10.5954 4.15404 11C4.15404 11.4045 4.27355 11.8001 4.49757 12.137C4.72159 12.4738 5.04013 12.737 5.41321 12.8935C5.78629 13.05 6.19728 13.0928 6.59458 13.0165C6.99189 12.9402 7.3578 12.7482 7.64639 12.4647L13.0535 14.8808V15.1066C13.0535 15.5127 13.1739 15.9097 13.3995 16.2474C13.6252 16.5851 13.9459 16.8483 14.3211 17.0037C14.6963 17.1591 15.1091 17.1997 15.5074 17.1205C15.9057 17.0413 16.2716 16.8457 16.5588 16.5586C16.8459 16.2714 17.0415 15.9055 17.1207 15.5072C17.1999 15.1089 17.1593 14.6961 17.0039 14.3209C16.8485 13.9457 16.5853 13.625 16.2476 13.3994C15.9099 13.1737 15.5129 13.0533 15.1068 13.0533Z" fill="#FAFAFA"/>
</g>
<defs>
<clipPath id="clip0_101_801">
<rect width="16" height="16" fill="white" transform="translate(2.78674 2.78667) scale(1.02667)"/>
</clipPath>
</defs>
</svg>
