<svg width="33" height="33" viewBox="0 0 33 33" fill="none" xmlns="http://www.w3.org/2000/svg">
<path d="M11 20.625C11 20.625 13.2 23.375 16.5 23.375C19.8 23.375 22 20.625 22 20.625M4.125 20.075V16.6789C4.125 15.0994 4.125 14.3097 4.32858 13.5824C4.5089 12.9382 4.80526 12.3323 5.20307 11.7944C5.65218 11.1872 6.27556 10.7023 7.52232 9.73263L11.0973 6.95207C13.0296 5.44918 13.9958 4.69773 15.0626 4.40888C16.0039 4.15401 16.9961 4.15401 17.9374 4.40888C19.0042 4.69773 19.9704 5.44918 21.9027 6.95207L25.4777 9.73263C26.7244 10.7023 27.3478 11.1872 27.7969 11.7944C28.1947 12.3323 28.4911 12.9382 28.6714 13.5824C28.875 14.3097 28.875 15.0994 28.875 16.6789V20.075C28.875 23.1553 28.875 24.6954 28.2755 25.8719C27.7482 26.9068 26.9068 27.7482 25.8719 28.2755C24.6954 28.875 23.1553 28.875 20.075 28.875H12.925C9.84471 28.875 8.30457 28.875 7.12805 28.2755C6.09316 27.7482 5.25177 26.9068 4.72446 25.8719C4.125 24.6954 4.125 23.1553 4.125 20.075Z" stroke="#FAFAFA" stroke-width="2.35714" stroke-linecap="round" stroke-linejoin="round"/>
</svg>
