<svg width="33" height="33" viewBox="0 0 33 33" fill="none" xmlns="http://www.w3.org/2000/svg">
<path d="M29.4831 23.1928C29.1944 22.6772 28.8437 22.1616 28.4519 21.615C27.5194 20.4506 26.873 19.0836 26.5647 17.6241L26.1316 11.5397C25.8737 6.82687 23.1203 2.0625 17.6444 2.0625H15.355C9.87906 2.0625 7.105 6.82688 6.82656 11.5294L6.39343 17.6241C6.08643 19.0966 5.44026 20.4772 4.50625 21.6562C4.15562 22.1925 3.805 22.6875 3.56781 23.1516C3.31325 23.4932 3.15908 23.8991 3.12265 24.3236C3.08621 24.7481 3.16895 25.1743 3.36156 25.5544C3.58628 25.9535 3.91734 26.2824 4.31789 26.5045C4.71844 26.7266 5.17276 26.8333 5.63031 26.8125H13.5916C13.422 27.2798 13.3675 27.7811 13.4327 28.2739C13.4979 28.7667 13.6809 29.2366 13.9662 29.6437C14.2515 30.0507 14.6308 30.3831 15.0718 30.6125C15.5128 30.842 16.0026 30.9618 16.4997 30.9618C16.9968 30.9618 17.4866 30.842 17.9276 30.6125C18.3686 30.3831 18.7478 30.0507 19.0331 29.6437C19.3185 29.2366 19.5015 28.7667 19.5667 28.2739C19.6319 27.7811 19.5774 27.2798 19.4078 26.8125H27.3691C27.8308 26.8293 28.2881 26.7165 28.689 26.4868C29.09 26.2572 29.4186 25.9199 29.6378 25.5131C29.8306 25.1503 29.9182 24.7409 29.8909 24.3309C29.8636 23.921 29.7223 23.5268 29.4831 23.1928ZM17.5309 27.8438C17.5309 28.0477 17.4705 28.2471 17.3571 28.4167C17.2438 28.5863 17.0828 28.7184 16.8943 28.7965C16.7059 28.8746 16.4985 28.895 16.2985 28.8552C16.0985 28.8154 15.9147 28.7172 15.7705 28.573C15.6263 28.4287 15.528 28.245 15.4882 28.0449C15.4485 27.8449 15.4689 27.6375 15.5469 27.4491C15.625 27.2607 15.7572 27.0996 15.9268 26.9863C16.0963 26.873 16.2957 26.8125 16.4997 26.8125C16.7732 26.8125 17.0355 26.9211 17.2289 27.1145C17.4223 27.3079 17.5309 27.5702 17.5309 27.8438ZM27.8434 24.5747C27.8434 24.6572 27.6681 24.75 27.4103 24.75H5.63031C5.3725 24.75 5.23843 24.6572 5.19718 24.5747C5.15593 24.4922 5.19718 24.3787 5.30031 24.2137C5.57875 23.7394 5.89843 23.2444 6.22843 22.7494C7.25968 21.2644 8.29093 19.5731 8.44562 17.7684L8.88906 11.6737C9.10562 8.18812 10.9309 4.125 15.355 4.125H17.6444C22.0684 4.125 23.8937 8.18812 24.1103 11.6841L24.5537 17.7684C24.6775 19.5938 25.7809 21.2644 26.8122 22.7494C27.1422 23.2444 27.4619 23.7806 27.7919 24.3066C27.8247 24.3419 27.8469 24.3858 27.8561 24.4332C27.8652 24.4806 27.8608 24.5296 27.8434 24.5747Z" fill="white"/>
</svg>
