<svg width="11" height="11" viewBox="0 0 11 11" fill="none" xmlns="http://www.w3.org/2000/svg">
<path d="M5.5001 7.33331C6.07301 7.33331 6.56007 7.13287 6.96126 6.73198C7.36246 6.33109 7.5629 5.84404 7.5626 5.27081C7.5626 4.6979 7.36215 4.21099 6.96126 3.8101C6.56038 3.40922 6.07332 3.20862 5.5001 3.20831C4.92718 3.20831 4.44028 3.40891 4.03939 3.8101C3.6385 4.2113 3.4379 4.6982 3.4376 5.27081C3.4376 5.84373 3.63819 6.33079 4.03939 6.73198C4.44058 7.13317 4.92749 7.33362 5.5001 7.33331ZM5.5001 6.50831C5.15635 6.50831 4.86424 6.38792 4.62376 6.14715C4.38329 5.90637 4.2629 5.61426 4.2626 5.27081C4.2626 4.92706 4.38299 4.63495 4.62376 4.39448C4.86454 4.15401 5.15665 4.03362 5.5001 4.03331C5.84385 4.03331 6.13611 4.1537 6.37689 4.39448C6.61767 4.63526 6.7379 4.92737 6.7376 5.27081C6.7376 5.61456 6.61736 5.90683 6.37689 6.1476C6.13642 6.38838 5.84415 6.50862 5.5001 6.50831ZM5.5001 8.70831C4.47649 8.70831 3.54256 8.43331 2.69831 7.88331C1.85406 7.33331 1.18764 6.60762 0.699056 5.70623C0.660862 5.63748 0.632292 5.5669 0.613348 5.49448C0.594403 5.42206 0.584778 5.34751 0.584473 5.27081C0.584473 5.19442 0.594098 5.11987 0.613348 5.04715C0.632598 4.97442 0.661167 4.90384 0.699056 4.8354C1.18794 3.93401 1.85451 3.20831 2.69876 2.65831C3.54301 2.10831 4.47679 1.83331 5.5001 1.83331C6.52371 1.83331 7.45764 2.10831 8.30189 2.65831C9.14614 3.20831 9.81256 3.93401 10.3011 4.8354C10.3393 4.90415 10.3681 4.97488 10.3873 5.0476C10.4066 5.12033 10.416 5.19473 10.4157 5.27081C10.4157 5.3472 10.4062 5.42176 10.3873 5.49448C10.3684 5.5672 10.3396 5.63779 10.3011 5.70623C9.81225 6.60762 9.14583 7.33331 8.30189 7.88331C7.45795 8.43331 6.52401 8.70831 5.5001 8.70831Z" fill="white"/>
</svg>
